<?xml version="1.0" standalone="no"?>
<!DOCTYPE svg PUBLIC "-//W3C//DTD SVG 20010904//EN"
 "http://www.w3.org/TR/2001/REC-SVG-20010904/DTD/svg10.dtd">
<svg version="1.0" xmlns="http://www.w3.org/2000/svg"
 width="1111.000000pt" height="1111.000000pt" viewBox="0 0 1111.000000 1111.000000"
 preserveAspectRatio="xMidYMid meet">
<g transform="translate(0.000000,1111.000000) scale(0.100000,-0.100000)"
fill="#000000" stroke="none">
<path d="M5235 8233 c-702 -60 -1327 -295 -1925 -723 -363 -260 -766 -657
-1053 -1037 -169 -225 -362 -519 -417 -635 -65 -136 -63 -293 4 -431 19 -40
75 -134 123 -210 374 -584 801 -1052 1295 -1418 149 -110 350 -241 375 -243
14 -1 44 74 156 379 120 329 137 380 123 390 -463 311 -852 705 -1181 1194
l-88 129 78 114 c302 439 633 796 990 1064 379 285 781 475 1202 567 l147 32
147 405 c82 223 148 411 149 418 0 12 -31 13 -125 5z"/>
<path d="M5967 8158 c-152 -403 -1776 -4885 -1773 -4894 6 -16 313 -117 466
-153 162 -39 303 -63 311 -53 3 4 408 1112 899 2462 491 1350 895 2460 897
2467 11 28 -410 155 -657 198 -124 22 -125 22 -143 -27z"/>
<path d="M7306 7722 c-9 -15 -277 -754 -274 -756 271 -185 418 -306 629 -516
233 -232 409 -446 588 -714 64 -95 72 -111 62 -130 -27 -49 -209 -301 -305
-421 -577 -725 -1310 -1199 -2047 -1325 l-65 -11 -149 -409 c-81 -225 -147
-413 -146 -417 4 -20 350 13 551 53 1146 226 2186 1017 2914 2217 97 161 110
200 110 332 0 134 -16 183 -106 329 -443 726 -1007 1316 -1631 1707 -112 70
-122 75 -131 61z"/>
</g>
</svg>
